<?xml version="1.0" encoding="UTF-8"?>
<!-- Generator: $$$/GeneralStr/196=Adobe Illustrator 27.6.0, SVG Export Plug-In . SVG Version: 6.00 Build 0)  -->
<svg version="1.1" id="圖層_1" xmlns="http://www.w3.org/2000/svg" xmlns:xlink="http://www.w3.org/1999/xlink" x="0px" y="0px"
	 viewBox="0 0 16 16" style="enable-background:new 0 0 16 16;" xml:space="preserve">
<style type="text/css">
	.st0{fill:#F2A72F;}
	.st1{fill:#DF9B31;}
	.st2{fill:#67A233;}
	.st3{fill:#C8C370;}
	.st4{fill:#A69755;}
	.st5{fill:#F6C26E;}
</style>
<g>
	<path class="st0" d="M8.1,3.9c0,0-0.1,0-0.1,0c0,0-0.1,0-0.1,0c-6.9,0-7.5,2.4-7.5,5.3c0,2.9,3.4,5.3,7.5,5.3c0,0,0.1,0,0.1,0
		c0,0,0.1,0,0.1,0c4.1,0,7.5-2.4,7.5-5.3C15.5,6.2,15,3.9,8.1,3.9z"/>
	<path class="st1" d="M14.5,10.4c-0.9,0.8-2,1.4-3.1,1.8c-1.2,0.4-2.4,0.7-3.7,0.9c-0.6,0.1-1.2,0.1-1.8,0.1c-0.6,0-1.1,0-1.7-0.1
		c-0.9-0.2-1.7-0.6-2.5-1.1c-0.1,0-0.1-0.1-0.2-0.1c1.3,1.5,3.7,2.4,6.3,2.4c0,0,0.1,0,0.1,0c0,0,0.1,0,0.1,0c4.1,0,7.5-2.4,7.5-5.3
		c0-0.1,0-0.2,0-0.3C15.3,9.4,14.9,10,14.5,10.4z"/>
	<path class="st2" d="M5.4,5.3c0,0.4,0.2,0.9,0.5,1.1C6.2,6.7,6.7,6.8,7,7s0.7,0.6,0.6,1c0.1-0.4,0.5-0.8,0.9-0.9c0.2,0,0.4,0,0.6,0
		c0.2,0,0.5-0.1,0.7-0.3c0.2-0.1,0.5-0.3,0.6-0.5c0.1-0.2,0.1-0.4,0.1-0.7c0-0.2,0-0.4,0-0.7c0-0.1,0-0.1,0-0.2
		c0-0.1-0.1-0.1-0.1-0.2c-0.2-0.2-0.4-0.4-0.7-0.5C9.3,3.9,8.9,3.9,8.5,3.8c-0.3,0-0.7,0-1,0c-0.2,0-0.5,0-0.7,0.1
		C6.4,4,5.9,4.2,5.6,4.4C5.4,4.6,5.4,5.1,5.4,5.3z"/>
	<path class="st2" d="M4.2,3.6C4.1,3.7,3.9,3.8,3.8,3.9C3.4,4.1,3,4.2,2.6,4.2C3,4.7,3.3,5.1,3.7,5.5C3.9,5.8,4.2,6,4.5,6.1
		c0.2,0.1,0.4,0.1,0.7,0.1c0.3,0,0.6,0,0.9,0c0.2,0,0.5-0.1,0.7-0.2c0.5-0.3,0.7-0.9,0.8-1.4c0-0.1,0-0.2,0-0.4
		c-0.1-0.7-0.9-0.9-1.5-1C5.5,3.2,4.8,3.3,4.2,3.6z"/>
	<path class="st2" d="M11.3,3.6c0.2,0.1,0.3,0.2,0.5,0.3c0.4,0.2,0.8,0.2,1.2,0.3c-0.4,0.4-0.7,0.9-1.1,1.3C11.6,5.8,11.3,6,11,6.1
		c-0.2,0.1-0.4,0.1-0.7,0.1c-0.3,0-0.6,0-0.9,0C9.2,6.2,9,6.1,8.7,6C8.3,5.8,8,5.2,8,4.6c0-0.1,0-0.2,0-0.4c0.1-0.7,0.9-0.9,1.5-1
		C10.1,3.2,10.7,3.3,11.3,3.6z"/>
	<path class="st2" d="M6.3,2.4c0.1-0.1,0.2-0.1,0.3-0.2c0.3-0.2,0.7-0.4,0.9-0.7c0.2-0.2,0.2-0.4,0.3-0.7C7.8,1.2,7.8,1.3,8,1.6
		C8.2,1.8,8.5,2,8.8,2.1c0.5,0.2,1,0.4,1.3,0.8c0.2,0.3,0.3,0.6,0.3,1c0,0.6-0.5,1.1-1.1,1.2C8.5,5.3,7.6,5.4,6.8,5.2
		c-0.5-0.1-1-0.5-1.2-1C5.4,3.8,5.3,3.4,5.5,3C5.7,2.7,6,2.6,6.3,2.4z"/>
	<ellipse class="st3" cx="7.8" cy="4.2" rx="1" ry="0.6"/>
	<path class="st4" d="M8.2,4.2c0,0.1-0.2,0.2-0.5,0.2S7.3,4.3,7.3,4.2c0-0.1,0.2-0.2,0.5-0.2S8.2,4,8.2,4.2z"/>
	<g>
		<path class="st5" d="M2,5.9c0.3,0.2,0.5,0.4,0.8,0.5C3,6.6,3.3,6.8,3.5,7C3.8,7.1,4,7.3,4.3,7.4c0.1,0.1,0.3,0.1,0.4,0.2
			c0.1,0.1,0.3,0.1,0.4,0.2C5,7.8,4.9,7.8,4.9,7.9c0,0-0.1,0-0.1,0c0,0-0.1,0-0.1,0c-0.2,0-0.3,0-0.5,0C3.8,7.8,3.4,7.7,3.2,7.5
			C2.9,7.3,2.6,7.1,2.4,6.8C2.3,6.7,2.3,6.6,2.2,6.4C2.1,6.3,2,6.1,2,5.9z"/>
	</g>
</g>
</svg>
